<svg width="128" height="128" viewBox="0 0 128 128" fill="none" xmlns="http://www.w3.org/2000/svg">
<path d="M94.3934 12.3934C100.251 6.53554 109.748 6.53554 115.606 12.3934C121.464 18.2513 121.464 27.7484 115.606 33.6063L92.2838 56.9288C88.3786 60.834 88.3786 67.1657 92.2838 71.0709L115.606 94.3934C121.464 100.251 121.464 109.748 115.606 115.606C109.748 121.464 100.251 121.464 94.3934 115.606L71.0709 92.2838C67.1657 88.3786 60.834 88.3786 56.9288 92.2838L33.6063 115.606C27.7484 121.464 18.2513 121.464 12.3934 115.606C6.53553 109.748 6.53554 100.251 12.3934 94.3934L35.7159 71.0709C39.6211 67.1657 39.6211 60.834 35.7159 56.9288L12.3934 33.6063C6.53553 27.7484 6.53553 18.2513 12.3934 12.3934C18.2513 6.53553 27.7484 6.53553 33.6063 12.3934L56.9288 35.7159C60.834 39.6211 67.1657 39.6211 71.0709 35.7159L94.3934 12.3934Z" fill="black"/>
</svg>
