<svg width="128" height="128" viewBox="0 0 128 128" fill="none" xmlns="http://www.w3.org/2000/svg">
<path d="M57.3942 13.9333C60.5707 9.28355 67.4293 9.28354 70.6057 13.9333L78.8381 25.984C80.4473 28.3397 83.1893 29.6601 86.0343 29.4496L100.589 28.3724C106.205 27.9567 110.481 33.319 108.826 38.7015L104.537 52.6514C103.699 55.3782 104.376 58.3452 106.314 60.4383L116.231 71.1458C120.058 75.2773 118.531 81.9639 113.291 84.0261L99.7109 89.3705C97.0562 90.4152 95.1587 92.7945 94.7309 95.6151L92.5425 110.044C91.698 115.612 85.5187 118.588 80.6393 115.777L67.9936 108.491C65.5216 107.067 62.4784 107.067 60.0064 108.491L47.3607 115.777C42.4813 118.588 36.302 115.612 35.4575 110.044L33.2691 95.6151C32.8413 92.7945 30.9438 90.4152 28.2891 89.3705L14.7087 84.0261C9.46864 81.9639 7.94245 75.2773 11.7688 71.1458L21.6855 60.4383C23.624 58.3452 24.3012 55.3782 23.4629 52.6514L19.174 38.7015C17.5192 33.319 21.7954 27.9567 27.4112 28.3724L41.9657 29.4496C44.8107 29.6601 47.5526 28.3397 49.1619 25.984L57.3942 13.9333Z" fill="black"/>
</svg>
